<mxfile host="Electron" agent="Mozilla/5.0 (Windows NT 10.0; Win64; x64) AppleWebKit/537.36 (KHTML, like Gecko) draw.io/25.0.2 Chrome/128.0.6613.186 Electron/32.2.5 Safari/537.36" version="25.0.2">
  <diagram name="Strona-1" id="U9l9rVQmlo6ytmJtd3gP">
    <mxGraphModel dx="797" dy="498" grid="1" gridSize="10" guides="1" tooltips="1" connect="1" arrows="1" fold="1" page="1" pageScale="1" pageWidth="827" pageHeight="1169" math="0" shadow="0">
      <root>
        <mxCell id="0" />
        <mxCell id="1" parent="0" />
        <mxCell id="bNWB7Fb8V5fuGfrlmmJ6-3" value="" style="edgeStyle=orthogonalEdgeStyle;rounded=0;orthogonalLoop=1;jettySize=auto;html=1;" parent="1" source="bNWB7Fb8V5fuGfrlmmJ6-1" target="bNWB7Fb8V5fuGfrlmmJ6-2" edge="1">
          <mxGeometry relative="1" as="geometry" />
        </mxCell>
        <mxCell id="bNWB7Fb8V5fuGfrlmmJ6-11" style="edgeStyle=elbowEdgeStyle;rounded=0;orthogonalLoop=1;jettySize=auto;html=1;exitX=0.5;exitY=1;exitDx=0;exitDy=0;elbow=vertical;entryX=0.25;entryY=0;entryDx=0;entryDy=0;" parent="1" source="bNWB7Fb8V5fuGfrlmmJ6-1" target="bNWB7Fb8V5fuGfrlmmJ6-4" edge="1">
          <mxGeometry relative="1" as="geometry">
            <mxPoint x="190" y="130.0000000000001" as="targetPoint" />
          </mxGeometry>
        </mxCell>
        <mxCell id="bNWB7Fb8V5fuGfrlmmJ6-1" value="Badania literatury" style="rounded=1;whiteSpace=wrap;html=1;" parent="1" vertex="1">
          <mxGeometry x="40" y="40" width="120" height="50" as="geometry" />
        </mxCell>
        <mxCell id="bNWB7Fb8V5fuGfrlmmJ6-10" style="rounded=0;orthogonalLoop=1;jettySize=auto;html=1;exitX=0.5;exitY=1;exitDx=0;exitDy=0;entryX=0.75;entryY=0;entryDx=0;entryDy=0;edgeStyle=elbowEdgeStyle;elbow=vertical;" parent="1" source="bNWB7Fb8V5fuGfrlmmJ6-2" target="bNWB7Fb8V5fuGfrlmmJ6-4" edge="1">
          <mxGeometry relative="1" as="geometry" />
        </mxCell>
        <mxCell id="bNWB7Fb8V5fuGfrlmmJ6-2" value="&lt;div&gt;Pytania badawcze;&lt;/div&gt;&lt;div&gt;Badania jakościowe&lt;/div&gt;" style="rounded=1;whiteSpace=wrap;html=1;" parent="1" vertex="1">
          <mxGeometry x="220" y="40" width="120" height="50" as="geometry" />
        </mxCell>
        <mxCell id="bNWB7Fb8V5fuGfrlmmJ6-8" value="" style="edgeStyle=orthogonalEdgeStyle;rounded=0;orthogonalLoop=1;jettySize=auto;html=1;" parent="1" source="bNWB7Fb8V5fuGfrlmmJ6-4" target="bNWB7Fb8V5fuGfrlmmJ6-7" edge="1">
          <mxGeometry relative="1" as="geometry" />
        </mxCell>
        <mxCell id="bNWB7Fb8V5fuGfrlmmJ6-4" value="Hipotezy;&lt;br&gt;Badania ilościowe" style="rounded=1;whiteSpace=wrap;html=1;" parent="1" vertex="1">
          <mxGeometry x="130" y="140" width="120" height="50" as="geometry" />
        </mxCell>
        <mxCell id="bNWB7Fb8V5fuGfrlmmJ6-7" value="&lt;font color=&quot;#ffffff&quot;&gt;Miary;&lt;br&gt;Metoda doskonalenia&lt;/font&gt;" style="rounded=1;whiteSpace=wrap;html=1;fillColor=#003767;" parent="1" vertex="1">
          <mxGeometry x="130" y="210" width="120" height="50" as="geometry" />
        </mxCell>
        <mxCell id="bNWB7Fb8V5fuGfrlmmJ6-14" style="edgeStyle=orthogonalEdgeStyle;rounded=0;orthogonalLoop=1;jettySize=auto;html=1;exitX=0.5;exitY=1;exitDx=0;exitDy=0;" parent="1" edge="1">
          <mxGeometry relative="1" as="geometry">
            <mxPoint x="190" y="120.00000000000011" as="sourcePoint" />
            <mxPoint x="190" y="120.00000000000011" as="targetPoint" />
          </mxGeometry>
        </mxCell>
        <mxCell id="bNWB7Fb8V5fuGfrlmmJ6-15" value="Identyfikacja miar" style="ellipse;shape=cloud;whiteSpace=wrap;html=1;" parent="1" vertex="1">
          <mxGeometry x="107" y="88" width="150" height="30" as="geometry" />
        </mxCell>
      </root>
    </mxGraphModel>
  </diagram>
</mxfile>
